<?xml version="1.0" encoding="utf-8"?>
<!-- Generator: Adobe Illustrator 17.1.0, SVG Export Plug-In . SVG Version: 6.00 Build 0)  -->
<!DOCTYPE svg PUBLIC "-//W3C//DTD SVG 1.1//EN" "http://www.w3.org/Graphics/SVG/1.1/DTD/svg11.dtd">
<svg version="1.1" xmlns="http://www.w3.org/2000/svg" xmlns:xlink="http://www.w3.org/1999/xlink" x="0px" y="0px" viewBox="0 0 500 500" enable-background="new 0 0 500 500" xml:space="preserve" preserveAspectRatio="none">
<g id="BACKGROUND">
</g>
<g id="OBJECTS">
	<g>
		<path fill="#807EFB" d="M416,129.4H196.3v-68H416c18.8,0,34,15.2,34,34v0C450,114.1,434.8,129.4,416,129.4z"/>
		<path fill="#48CDD2" d="M423.7,341.9H213.3v-68h210.4c18.8,0,34,15.2,34,34l0,0C457.7,326.7,442.5,341.9,423.7,341.9z"/>
		<path fill="#ED5276" d="M79.3,242.7h203v-68h-203c-18.8,0-34,15.2-34,34v0C45.3,227.5,60.5,242.7,79.3,242.7z"/>
		<path fill="#FFC153" d="M82.1,436.4h224.7v-68H82.1c-18.8,0-34,15.2-34,34v0C48.1,421.1,63.4,436.4,82.1,436.4z"/>
		<radialGradient id="SVGID_1_" cx="252.1457" cy="250" r="182.3294" gradientUnits="userSpaceOnUse">
			<stop  offset="0" style="stop-color:#FFFFFF"/>
			<stop  offset="1" style="stop-color:#F2F2F2"/>
		</radialGradient>
		<path fill="url(#SVGID_1_)" d="M344.6,337.7c-15.4-0.3-29.5,5.2-40.3,14.4c-8,6.8-19.3,8.2-28.7,3.4l-38-18.2
			c-9.3-4.8-14.6-14.7-13.9-25.1c0-0.5,0.1-1,0.1-1.6c0.4-8.3,4.6-16,11.6-20.6l46.2-30.6c8.7-5.8,20-5.6,28.8,0.1
			c10.2,6.7,22.5,10.4,35.7,9.8c31.6-1.4,57-27.4,57.7-59c0.7-34-26.6-61.7-60.4-61.7c-11.7,0-22.7,3.3-31.9,9.1
			c-8.2,5.1-18.5,5.4-26.9,0.6l-50.5-29.2c-8.6-4.9-13.4-14.3-12.9-24.2c1.7-32-22.5-61-56-63.4c-34.3-2.4-64,24.6-64.8,58.9
			c-0.7,34,26.6,61.7,60.4,61.7c10.9,0,21-2.9,29.9-7.9c8-4.6,17.9-4.6,25.9,0l53.4,30.8c8.1,4.7,13.2,13.4,13,22.7
			c0,0.1,0,0.2,0,0.3c-0.1,8.6-4.4,16.6-11.6,21.3l-43.9,29.1c-8.9,5.9-20.5,5.8-29.2-0.4c-9.8-6.9-21.7-11-34.6-11.1
			c-32.7-0.1-59.9,26.3-60.6,58.9c-0.8,34,26.5,61.9,60.4,61.9c10.3,0,20-2.6,28.5-7.2c7.5-4,16.5-4.1,24-0.2l53.8,26.3
			c7.6,3.9,12.7,11.3,13.9,19.8c4.2,29.3,29.4,51.8,59.8,51.8c33.8,0,61.2-27.8,60.4-61.9C403.1,364.5,376.7,338.3,344.6,337.7z"/>
		<path fill="#807EFB" d="M343.5,451.7c-26.5,0-49.3-19.7-53-45.9c-1.5-10.8-8.1-20.1-17.5-24.9l-53.9-26.3
			c-4.6-2.4-9.8-3.6-14.9-3.6c-5.4,0-10.7,1.3-15.4,3.9c-7.7,4.2-16.5,6.3-25.3,6.3c-14.5,0-28.2-5.7-38.3-16.1
			c-10.2-10.4-15.6-24.2-15.2-38.7c0.7-28.8,24.7-52.3,53.6-52.3l0.2,0c11.1,0,21.7,3.4,30.7,9.8c5.5,3.9,12,6,18.7,6
			c6.5,0,12.7-1.9,18.1-5.5l43.9-29.1c9-6,14.5-16,14.7-26.9l0-0.2c0.3-11.8-6-22.8-16.4-28.8L220,148.5c-5-2.9-10.6-4.4-16.3-4.4
			c-5.7,0-11.4,1.5-16.4,4.4c-8,4.6-17.2,7-26.5,7c-14.5,0-28.1-5.7-38.3-16.1c-10.2-10.4-15.6-24.1-15.3-38.6
			c0.6-28.9,24.7-52.4,53.7-52.4c1.2,0,2.5,0,3.8,0.1c28.9,2,51.2,27.2,49.6,56.2c-0.7,12.6,5.6,24.2,16.3,30.4l50.5,29.2
			c4.9,2.9,10.6,4.4,16.3,4.4c6.2,0,12.3-1.8,17.6-5.1c8.5-5.3,18.3-8.1,28.3-8.1c14.5,0,28.1,5.7,38.3,16.1
			c10.2,10.4,15.6,24.1,15.3,38.6c-0.6,28.1-23.1,51.1-51.2,52.3c-0.8,0-1.6,0.1-2.4,0.1c-10.4,0-20.6-3-29.3-8.7
			c-5.5-3.6-11.8-5.5-18.3-5.5c-6.4,0-12.7,1.9-18,5.4l-46.2,30.6c-8.6,5.7-14.1,15.4-14.6,25.9c0,0.5-0.1,0.9-0.1,1.4
			c-1,13.3,5.9,25.7,17.5,31.7l38.1,18.2c4.6,2.3,9.7,3.6,14.8,3.6c7.8,0,15.4-2.8,21.3-7.9c9.7-8.3,22-12.8,34.7-12.8
			c0.3,0,0.7,0,1,0c13.8,0.2,26.8,5.8,36.7,15.6c9.9,9.8,15.5,22.8,15.8,36.6c0.3,14.6-5.1,28.3-15.2,38.7
			C371.6,445.9,358,451.7,343.5,451.7z"/>
		<path fill="#FFC153" d="M381.2,360.2c-9.9-9.8-22.9-15.4-36.7-15.6c-0.3,0-0.7,0-1,0c-12.7,0-25.1,4.5-34.7,12.8
			c-6,5.1-13.5,7.9-21.3,7.9c-5.1,0-10.3-1.2-14.8-3.6l-15.9-7.6l-7.2,15.4l23.5,11.5c9.4,4.8,16,14.2,17.5,24.9
			c3.7,26.2,26.5,45.9,53,45.9c14.5,0,28.2-5.7,38.3-16.1c10.2-10.4,15.6-24.2,15.2-38.7C396.7,383,391.1,370,381.2,360.2z"/>
		<path fill="#48CDD2" d="M234.4,343.4c-11.7-6-18.6-18.4-17.5-31.7c0-0.5,0.1-0.9,0.1-1.4c0.5-10.5,6-20.2,14.6-25.9l31.4-20.8
			l-9.6-13.9l-22.1,14.7c-5.4,3.6-11.7,5.5-18.1,5.5c-6.8,0-13.3-2.1-18.7-6c-9-6.4-19.6-9.8-30.7-9.8l-0.2,0
			c-28.9,0-52.9,23.4-53.6,52.3c-0.3,14.6,5.1,28.3,15.2,38.7c10.2,10.4,23.8,16.1,38.3,16.1c8.8,0,17.6-2.2,25.3-6.3
			c4.7-2.5,10-3.9,15.4-3.9c5.2,0,10.3,1.2,14.9,3.6l30.4,14.8l7.2-15.4L234.4,343.4z"/>
		<path fill="#ED5276" d="M277.8,253.8c5.3-3.5,11.6-5.4,18-5.4c6.5,0,12.8,1.9,18.3,5.5c8.7,5.7,18.9,8.7,29.3,8.7
			c0.8,0,1.6,0,2.4-0.1c28.1-1.2,50.6-24.2,51.2-52.3c0.3-14.5-5.1-28.3-15.3-38.6c-10.2-10.4-23.8-16.1-38.3-16.1
			c-10,0-19.8,2.8-28.3,8.1c-5.3,3.3-11.4,5.1-17.6,5.1c-5.7,0-11.4-1.5-16.3-4.4l-25.2-14.6l-8.5,14.6l26,15
			c10.4,6,16.6,17,16.4,28.8l0,0.2c-0.2,10.9-5.7,21-14.7,26.9l-21.7,14.4l9.6,13.9L277.8,253.8z"/>
		<radialGradient id="SVGID_2_" cx="160.8344" cy="101.8968" r="44.4804" gradientUnits="userSpaceOnUse">
			<stop  offset="0" style="stop-color:#FFFFFF"/>
			<stop  offset="1" style="stop-color:#F2F2F2"/>
		</radialGradient>
		<circle fill="url(#SVGID_2_)" cx="160.8" cy="101.9" r="44.5"/>
		<radialGradient id="SVGID_3_" cx="163.4682" cy="307.6213" r="44.4804" gradientUnits="userSpaceOnUse">
			<stop  offset="0" style="stop-color:#FFFFFF"/>
			<stop  offset="1" style="stop-color:#F2F2F2"/>
		</radialGradient>
		<circle fill="url(#SVGID_3_)" cx="163.5" cy="307.6" r="44.5"/>
		<radialGradient id="SVGID_4_" cx="343.4026" cy="209.0284" r="44.4805" gradientUnits="userSpaceOnUse">
			<stop  offset="0" style="stop-color:#FFFFFF"/>
			<stop  offset="1" style="stop-color:#F2F2F2"/>
		</radialGradient>
		<circle fill="url(#SVGID_4_)" cx="343.4" cy="209" r="44.5"/>
		<radialGradient id="SVGID_5_" cx="343.457" cy="398.0998" r="44.4804" gradientUnits="userSpaceOnUse">
			<stop  offset="0" style="stop-color:#FFFFFF"/>
			<stop  offset="1" style="stop-color:#F2F2F2"/>
		</radialGradient>
		<circle fill="url(#SVGID_5_)" cx="343.5" cy="398.1" r="44.5"/>
		<g>		
				<text transform="matrix(1 0 0 1 140.4072 89.8263)" fill="#474549" font-family="'Titillium-Light'" font-size="13.5641" letter-spacing="2">Шаг</text>
			<text transform="matrix(1 0 0 1 146.7114 122.2858)" fill="#474549" font-family="'Titillium-Bold'" font-size="43.077">1</text>
		</g>
		<g>
			
				<text transform="matrix(1 0 0 1 322.9751 196.57)" fill="#474549" font-family="'Titillium-Light'" font-size="13.5641" letter-spacing="2">Шаг</text>
			<text transform="matrix(1 0 0 1 329.2798 229.0295)" fill="#474549" font-family="'Titillium-Bold'" font-size="43.077"> 2</text>
		</g>
		<g>
			
				<text transform="matrix(1 0 0 1 142.0962 295.756)" fill="#474549" font-family="'Titillium-Light'" font-size="13.5641" letter-spacing="2">Шаг</text>
			<text transform="matrix(1 0 0 1 148.4009 328.216)" fill="#474549" font-family="'Titillium-Bold'" font-size="43.077"> 3</text>
		</g>
		<g>
			
				<text transform="matrix(1 0 0 1 324.4107 386.4416)" fill="#474549" font-family="'Titillium-Light'" font-size="13.5641" letter-spacing="2">Шаг</text>
			<text transform="matrix(1 0 0 1 330.7154 418.9006)" fill="#474549" font-family="'Titillium-Bold'" font-size="43.077"> 4</text>
		</g>
		<rect x="262" y="89.5" fill="none" width="135.1" height="38.3"/>
		<text transform="matrix(1 0 0 1 262.0124 97.3305)" fill="#F9F9F9" font-family="'Titillium-Regular'" font-size="11">Вы  звоните мне</text>
		<rect x="273.8" y="301.6" fill="none" width="151.5" height="41"/>
		<text transform="matrix(1 0 0 1 273.8231 309.3679)" fill="#F9F9F9" font-family="'Titillium-Regular'" font-size="11">Я приступаю к работе </text>
		<rect x="108.8" y="391.6" fill="none" width="151.5" height="41"/>
		<text transform="matrix(1 0 0 1 108.7943 399.4498)"><tspan x="0" y="0" fill="#F9F9F9" font-family="'Titillium-Regular'" font-size="11">Вы получаете качественный</tspan><tspan x="0" y="13.2" fill="#F9F9F9" font-family="'Titillium-Regular'" font-size="11">Продукт за не большие деньги.</tspan></text>
		<rect x="116.9" y="195.3" fill="none" width="135.1" height="38.3"/>
		<text transform="matrix(1 0 0 1 131.8231 203.0876)"><tspan x="0" y="0" fill="#F9F9F9" font-family="'Titillium-Regular'" font-size="11">Мы обговариваем все </tspan><tspan x="-2.7" y="13.2" fill="#F9F9F9" font-family="'Titillium-Regular'" font-size="11">детали и составляем т3 </tspan></text>
	</g>
	<g>
		<g>
			<g>
				<path fill="#F9F9F9" d="M398.2,81.2c9,0.1,14.6-0.5,15.3,9.5h10.9c0-15.4-13.4-17.5-26.5-17.5c-13.1,0-26.5,2.1-26.5,17.5h10.8
					C383,80.5,389.3,81.1,398.2,81.2z"/>
				<path fill="#F9F9F9" d="M376.7,95.6c2.7,0,4.9,0.2,5.4-2.5c0.1-0.4,0.1-0.8,0.1-1.2h-0.1h-10.8
					C371.3,95.8,373.7,95.6,376.7,95.6z"/>
				<path fill="#F9F9F9" d="M413.6,91.9h-0.1c0,0.5,0,0.9,0.1,1.2c0.5,2.4,2.7,2.3,5.4,2.3c3,0,5.5,0.2,5.5-3.5H413.6L413.6,91.9z"
					/>
				<path fill="#F9F9F9" d="M408.2,89.3v-1.5c0-0.7-0.8-0.7-1.8-0.7h-1.6c-1,0-1.8,0-1.8,0.7V89v1h-11.4v-1v-1.3
					c0-0.7-0.8-0.7-1.8-0.7h-1.6c-1,0-1.8,0-1.8,0.7v1.5v1.4c-2.6,2.7-11.1,14.2-11.4,15.6l0,9.3c0,0.9,0.7,1.6,1.6,1.6h41.4
					c0.9,0,1.6-0.7,1.6-1.6v-9.3c-0.3-1.3-8.8-12.8-11.4-15.5V89.3z M391.1,107.4c-0.8,0-1.5-0.7-1.5-1.5s0.7-1.5,1.5-1.5
					s1.5,0.7,1.5,1.5S391.9,107.4,391.1,107.4z M391.1,102.2c-0.8,0-1.5-0.7-1.5-1.5s0.7-1.5,1.5-1.5s1.5,0.7,1.5,1.5
					S391.9,102.2,391.1,102.2z M391.1,97.1c-0.8,0-1.5-0.7-1.5-1.5c0-0.8,0.7-1.5,1.5-1.5s1.5,0.7,1.5,1.5
					C392.6,96.4,391.9,97.1,391.1,97.1z M397.3,107.4c-0.8,0-1.5-0.7-1.5-1.5s0.7-1.5,1.5-1.5c0.8,0,1.5,0.7,1.5,1.5
					S398.2,107.4,397.3,107.4z M397.3,102.2c-0.8,0-1.5-0.7-1.5-1.5s0.7-1.5,1.5-1.5c0.8,0,1.5,0.7,1.5,1.5S398.2,102.2,397.3,102.2
					z M397.3,97.1c-0.8,0-1.5-0.7-1.5-1.5c0-0.8,0.7-1.5,1.5-1.5c0.8,0,1.5,0.7,1.5,1.5C398.8,96.4,398.2,97.1,397.3,97.1z
					 M403.5,107.4c-0.8,0-1.5-0.7-1.5-1.5s0.7-1.5,1.5-1.5s1.5,0.7,1.5,1.5S404.4,107.4,403.5,107.4z M403.5,102.2
					c-0.8,0-1.5-0.7-1.5-1.5s0.7-1.5,1.5-1.5s1.5,0.7,1.5,1.5S404.4,102.2,403.5,102.2z M403.5,97.1c-0.8,0-1.5-0.7-1.5-1.5
					c0-0.8,0.7-1.5,1.5-1.5s1.5,0.7,1.5,1.5C405,96.4,404.4,97.1,403.5,97.1z"/>
			</g>
		</g>
	</g>
	<g>
		<g>
			<radialGradient id="SVGID_6_" cx="96.1713" cy="215.6874" r="11.8917" gradientUnits="userSpaceOnUse">
				<stop  offset="0" style="stop-color:#FFFFFF"/>
				<stop  offset="1" style="stop-color:#F2F2F2"/>
			</radialGradient>
			<path fill="url(#SVGID_6_)" d="M104.3,218.9l2.5-12.9c0.1-0.7-0.3-1.4-1.1-1.6c-0.7-0.1-1.4,0.3-1.6,1.1l-2.3,11.8h-3.4
				c0.5-0.1,0.9-0.4,1.3-0.7c0.5-0.5,0.8-1.2,0.8-1.9l0-9.2c0-1.5-1.2-2.7-2.7-2.7l-2.5,0c-1.5,0-2.7,1.3-2.7,2.8l0,2.1l2.4-2.7
				l-2.5,4.4h-5.6c-0.9,0-1.6,0.7-1.6,1.6s0.7,1.6,1.6,1.6h6.5c0.6,0,1.1-0.3,1.4-0.8l2.5-4.5c-0.4,1.7-0.9,3.4-1.5,5
				c-0.3,0.7-0.9,1.2-1.7,1.4l-6,0c-0.6,0-1.2,0.3-1.6,0.9c-0.4,0.5-0.4,1.2-0.2,1.8l4.4,11.2c0.4,1,1.5,1.5,2.5,1.1
				c1-0.4,1.5-1.5,1.1-2.5l-0.6-1.4l1.8-4.6h5.1l3.1,8.1c0.2,0.5,0.7,0.7,1.2,0.5c0.5-0.2,0.7-0.7,0.5-1.2l-2.9-7.4h0.2
				C103.7,220,104.2,219.6,104.3,218.9z M93,222.1l-1.8-4.6l1.8,0c-0.4,0.2-0.7,0.7-0.7,1.2c0,0.7,0.6,1.3,1.3,1.3h0.2L93,222.1z"/>
		</g>
	</g>
	<g>
		<g>
			<radialGradient id="SVGID_7_" cx="94.5296" cy="197.9209" r="3.583" gradientUnits="userSpaceOnUse">
				<stop  offset="0" style="stop-color:#FFFFFF"/>
				<stop  offset="1" style="stop-color:#F2F2F2"/>
			</radialGradient>
			<circle fill="url(#SVGID_7_)" cx="94.5" cy="197.9" r="3.6"/>
		</g>
	</g>
	<g>
		<g>
			<radialGradient id="SVGID_8_" cx="72.3183" cy="215.6871" r="11.8917" gradientUnits="userSpaceOnUse">
				<stop  offset="0" style="stop-color:#FFFFFF"/>
				<stop  offset="1" style="stop-color:#F2F2F2"/>
			</radialGradient>
			<path fill="url(#SVGID_8_)" d="M74.9,212.6h6.5c0.9,0,1.6-0.7,1.6-1.6s-0.7-1.6-1.6-1.6h-5.6l-2.5-4.4l2.4,2.7l0-2.1
				c0-1.5-1.2-2.8-2.7-2.8l-2.5,0c-1.5,0-2.7,1.2-2.7,2.7l0,9.2c0,0.7,0.3,1.4,0.8,1.9c0.4,0.4,0.8,0.6,1.3,0.7h-3.4l-2.3-11.8
				c-0.1-0.7-0.8-1.2-1.6-1.1c-0.7,0.1-1.2,0.8-1.1,1.6l2.5,12.9c0.1,0.6,0.7,1.1,1.3,1.1h0.2l-2.9,7.4c-0.2,0.5,0.1,1,0.5,1.2
				c0.5,0.2,1-0.1,1.2-0.5l3.1-8.1h5.1l1.8,4.6l-0.6,1.4c-0.4,1,0.1,2.1,1.1,2.5c1,0.4,2.1-0.1,2.5-1.1l4.4-11.2
				c0.2-0.6,0.2-1.3-0.2-1.8c-0.4-0.5-1-0.9-1.6-0.9c0,0,0,0,0,0c-6.4,0-6,0-6,0c-0.8-0.1-1.4-0.7-1.7-1.3l-1.5-5l2.5,4.5
				C73.7,212.3,74.3,212.6,74.9,212.6z M74.9,220L74.9,220c0.7,0,1.3-0.6,1.3-1.3c0-0.5-0.3-1-0.7-1.2l1.8,0l-1.8,4.6l-0.8-2.1H74.9
				L74.9,220z"/>
		</g>
	</g>
	<g>
		<g>
			<radialGradient id="SVGID_9_" cx="73.9604" cy="197.9209" r="3.583" gradientUnits="userSpaceOnUse">
				<stop  offset="0" style="stop-color:#FFFFFF"/>
				<stop  offset="1" style="stop-color:#F2F2F2"/>
			</radialGradient>
			<circle fill="url(#SVGID_9_)" cx="74" cy="197.9" r="3.6"/>
		</g>
	</g>
	<g>
		<g>
			<radialGradient id="SVGID_10_" cx="83.3799" cy="191.5014" r="5.8655" gradientUnits="userSpaceOnUse">
				<stop  offset="0" style="stop-color:#FFFFFF"/>
				<stop  offset="1" style="stop-color:#F2F2F2"/>
			</radialGradient>
			<path fill="url(#SVGID_10_)" d="M83.4,186.2c-3.5,0-6.4,2.1-6.4,4.6c0,1.4,0.8,2.6,2.2,3.5l-0.9,1.8c-0.1,0.2-0.1,0.4,0.1,0.5
				c0.1,0.1,0.4,0.2,0.5,0.1l2.5-1.4c0.6,0.1,1.3,0.2,2,0.2c3.5,0,6.4-2.1,6.4-4.6C89.8,188.3,86.9,186.2,83.4,186.2z"/>
		</g>
	</g>
	<g>
		<g>
			<radialGradient id="SVGID_11_" cx="415.6025" cy="307.523" r="13.7308" gradientUnits="userSpaceOnUse">
				<stop  offset="0" style="stop-color:#FFFFFF"/>
				<stop  offset="1" style="stop-color:#F2F2F2"/>
			</radialGradient>
			<path fill="url(#SVGID_11_)" d="M426.9,315.2c0-0.1-0.1-0.3-0.2-0.4c-0.8-1-1.4-1.8-1.9-2.5c0.3-0.6,0.5-1.1,0.7-1.6l3.3-0.5
				c0.1,0,0.2-0.1,0.3-0.2c0.1-0.1,0.1-0.3,0.1-0.4v-4c0-0.2,0-0.3-0.1-0.4c-0.1-0.1-0.2-0.2-0.4-0.2l-3.3-0.5
				c-0.2-0.5-0.4-1.1-0.7-1.8c0.2-0.3,0.5-0.7,1-1.3c0.4-0.5,0.7-0.9,0.9-1.2c0.1-0.1,0.2-0.3,0.2-0.4c0-0.4-1-1.5-3.1-3.4
				c-0.1-0.1-0.3-0.2-0.5-0.2c-0.2,0-0.3,0-0.4,0.2l-2.5,1.9c-0.6-0.3-1.1-0.5-1.6-0.7l-0.5-3.3c0-0.1-0.1-0.3-0.2-0.4
				c-0.1-0.1-0.3-0.2-0.4-0.2h-4c-0.3,0-0.5,0.2-0.6,0.5c-0.2,0.7-0.3,1.8-0.5,3.3c-0.6,0.2-1.2,0.4-1.7,0.7l-2.5-1.9
				c-0.1-0.1-0.3-0.2-0.5-0.2c-0.3,0-0.8,0.4-1.7,1.3c-0.9,0.8-1.4,1.5-1.8,1.9c-0.1,0.1-0.2,0.3-0.2,0.4c0,0.1,0,0.3,0.2,0.4
				c0.8,1,1.4,1.8,1.9,2.5c-0.3,0.6-0.5,1.1-0.7,1.6l-3.3,0.5c-0.1,0-0.2,0.1-0.3,0.2c-0.1,0.1-0.2,0.3-0.2,0.4v4
				c0,0.2,0.1,0.3,0.2,0.4c0.1,0.1,0.2,0.2,0.4,0.2l3.3,0.5c0.2,0.5,0.4,1.1,0.8,1.8c-0.2,0.3-0.6,0.8-1,1.3
				c-0.4,0.6-0.7,0.9-0.9,1.1c-0.1,0.1-0.2,0.3-0.2,0.4c0,0.4,1,1.5,3.1,3.4c0.1,0.1,0.3,0.2,0.5,0.2c0.2,0,0.3,0,0.4-0.1l2.5-1.9
				c0.6,0.3,1.1,0.5,1.6,0.7l0.5,3.3c0,0.1,0.1,0.3,0.2,0.4c0.1,0.1,0.3,0.2,0.4,0.2h4c0.3,0,0.5-0.2,0.6-0.5
				c0.2-0.7,0.3-1.8,0.5-3.3c0.6-0.2,1.1-0.4,1.7-0.7l2.5,1.9c0.1,0.1,0.3,0.1,0.5,0.1c0.3,0,0.8-0.4,1.7-1.3
				c0.9-0.9,1.4-1.5,1.8-1.9C426.9,315.5,426.9,315.4,426.9,315.2z M419.5,311.4c-1.1,1.1-2.4,1.6-3.9,1.6c-1.5,0-2.8-0.5-3.9-1.6
				c-1.1-1.1-1.6-2.4-1.6-3.9c0-1.5,0.5-2.8,1.6-3.9c1.1-1.1,2.4-1.6,3.9-1.6c1.5,0,2.8,0.5,3.9,1.6c1.1,1.1,1.6,2.4,1.6,3.9
				C421.1,309,420.6,310.3,419.5,311.4z"/>
			<radialGradient id="SVGID_12_" cx="434.8265" cy="318.5186" r="8.074" gradientUnits="userSpaceOnUse">
				<stop  offset="0" style="stop-color:#FFFFFF"/>
				<stop  offset="1" style="stop-color:#F2F2F2"/>
			</radialGradient>
			<path fill="url(#SVGID_12_)" d="M439.9,316.3c-0.2-0.4-0.4-0.8-0.6-1.1c0.7-1.6,1.1-2.6,1.1-3c0-0.1,0-0.1-0.1-0.1
				c-1.7-1-2.6-1.5-2.7-1.5l-0.1,0c-0.6,0.6-1.2,1.4-2,2.4c-0.3,0-0.5,0-0.6,0c-0.1,0-0.4,0-0.6,0c-0.2-0.3-0.6-0.8-1.1-1.4
				c-0.5-0.7-0.9-1-1-1c0,0-0.2,0.1-0.6,0.3c-0.4,0.2-0.8,0.5-1.3,0.7c-0.4,0.3-0.7,0.4-0.8,0.4c-0.1,0-0.1,0.1-0.1,0.1
				c0,0.4,0.4,1.3,1.1,3c-0.2,0.3-0.5,0.7-0.6,1.1c-2.1,0.2-3.2,0.4-3.2,0.7v3c0,0.2,1.1,0.5,3.2,0.7c0.2,0.4,0.4,0.8,0.6,1.1
				c-0.7,1.6-1.1,2.6-1.1,3c0,0.1,0,0.1,0.1,0.2c1.7,1,2.6,1.5,2.7,1.5c0.1,0,0.4-0.3,1-1c0.5-0.7,0.9-1.2,1.1-1.5
				c0.3,0,0.5,0,0.6,0c0.1,0,0.4,0,0.6,0c0.2,0.3,0.6,0.8,1.1,1.5c0.5,0.7,0.9,1,1,1c0,0,0.9-0.5,2.7-1.5c0.1,0,0.1-0.1,0.1-0.2
				c0-0.4-0.4-1.3-1.1-3c0.3-0.4,0.5-0.7,0.6-1.1c2.1-0.2,3.2-0.4,3.2-0.7v-3C443.1,316.8,442,316.6,439.9,316.3z M436.8,320.4
				c-0.5,0.5-1.2,0.8-1.9,0.8c-0.8,0-1.4-0.3-1.9-0.8c-0.5-0.5-0.8-1.2-0.8-1.9c0-0.7,0.3-1.4,0.8-1.9c0.5-0.5,1.2-0.8,1.9-0.8
				c0.7,0,1.4,0.3,1.9,0.8c0.5,0.5,0.8,1.2,0.8,1.9C437.6,319.3,437.3,319.9,436.8,320.4z"/>
			<radialGradient id="SVGID_13_" cx="434.8265" cy="296.5487" r="8.074" gradientUnits="userSpaceOnUse">
				<stop  offset="0" style="stop-color:#FFFFFF"/>
				<stop  offset="1" style="stop-color:#F2F2F2"/>
			</radialGradient>
			<path fill="url(#SVGID_13_)" d="M439.9,294.4c-0.2-0.4-0.4-0.8-0.6-1.1c0.7-1.6,1.1-2.6,1.1-3c0-0.1,0-0.1-0.1-0.2
				c-1.7-1-2.6-1.5-2.7-1.5l-0.1,0c-0.6,0.6-1.2,1.4-2,2.4c-0.3,0-0.5,0-0.6,0c-0.1,0-0.4,0-0.6,0c-0.2-0.3-0.6-0.8-1.1-1.4
				c-0.5-0.7-0.9-1-1-1c0,0-0.2,0.1-0.6,0.3c-0.4,0.2-0.8,0.5-1.3,0.7c-0.4,0.3-0.7,0.4-0.8,0.4c-0.1,0-0.1,0.1-0.1,0.2
				c0,0.4,0.4,1.3,1.1,3c-0.2,0.3-0.5,0.7-0.6,1.1c-2.1,0.2-3.2,0.4-3.2,0.7v3c0,0.2,1.1,0.5,3.2,0.7c0.2,0.4,0.4,0.8,0.6,1.1
				c-0.7,1.6-1.1,2.6-1.1,3c0,0.1,0,0.1,0.1,0.2c1.7,1,2.6,1.5,2.7,1.5c0.1,0,0.4-0.3,1-1c0.5-0.7,0.9-1.2,1.1-1.5
				c0.3,0,0.5,0,0.6,0c0.1,0,0.4,0,0.6,0c0.2,0.3,0.6,0.8,1.1,1.5c0.5,0.7,0.9,1,1,1c0,0,0.9-0.5,2.7-1.5c0.1,0,0.1-0.1,0.1-0.2
				c0-0.4-0.4-1.3-1.1-3c0.3-0.4,0.5-0.7,0.6-1.1c2.1-0.2,3.2-0.4,3.2-0.7v-3C443.1,294.8,442,294.6,439.9,294.4z M436.8,298.5
				c-0.5,0.5-1.2,0.8-1.9,0.8c-0.8,0-1.4-0.3-1.9-0.8c-0.5-0.5-0.8-1.2-0.8-1.9c0-0.7,0.3-1.4,0.8-1.9c0.5-0.5,1.2-0.8,1.9-0.8
				c0.7,0,1.4,0.3,1.9,0.8c0.5,0.5,0.8,1.2,0.8,1.9C437.6,297.3,437.3,297.9,436.8,298.5z"/>
		</g>
	</g>
	<g>
		<g>
			<radialGradient id="SVGID_14_" cx="79.8061" cy="396.0627" r="3.7116" gradientUnits="userSpaceOnUse">
				<stop  offset="0" style="stop-color:#FFFFFF"/>
				<stop  offset="1" style="stop-color:#F2F2F2"/>
			</radialGradient>
			<circle fill="url(#SVGID_14_)" cx="79.8" cy="396.1" r="3.7"/>
		</g>
	</g>
	<g>
		<g>
			<radialGradient id="SVGID_15_" cx="80.4496" cy="409.8755" r="17.5575" gradientUnits="userSpaceOnUse">
				<stop  offset="0" style="stop-color:#FFFFFF"/>
				<stop  offset="1" style="stop-color:#F2F2F2"/>
			</radialGradient>
			<path fill="url(#SVGID_15_)" d="M94.1,419.2c-5.5-6.9-5.1-6.4-5.4-6.6l-2.5-10.3l7.3-9.9c0.6-0.8,0.4-1.9-0.4-2.5
				c-0.8-0.6-1.9-0.4-2.5,0.4l-7.4,10c0,0-0.1,0-0.1,0c-4.7,1.2-4.4,1.1-4.7,1.2l-9-9.2c-0.7-0.7-1.8-0.7-2.5,0
				c-0.7,0.7-0.7,1.8,0,2.5l10.3,10.5l2.8,11.6l-0.8,2.9l-7.2-1.3c-1.2-0.2-2.3,0.6-2.5,1.7c-0.2,1.2,0.6,2.3,1.7,2.5l9.1,1.6
				c1.1,0.2,2.1-0.5,2.4-1.5c2.1-7.3,1.9-6.8,2-7l0.9-0.2c0.1,0.1-0.3-0.3,4,5l-5.4,6.3c-0.8,0.9-0.7,2.3,0.2,3
				c0.9,0.8,2.3,0.7,3-0.2l6.6-7.6C94.7,421.2,94.7,420,94.1,419.2z"/>
		</g>
	</g>
	<g>
		<g>
			<radialGradient id="SVGID_16_" cx="98.8726" cy="395.0503" r="2.2498" gradientUnits="userSpaceOnUse">
				<stop  offset="0" style="stop-color:#FFFFFF"/>
				<stop  offset="1" style="stop-color:#F2F2F2"/>
			</radialGradient>
			<path fill="url(#SVGID_16_)" d="M100,392.9c-0.5,0-0.9,0.3-1.1,0.7c-0.2-0.4-0.6-0.7-1.1-0.7c-0.7,0-1.2,0.5-1.2,1.2
				c0,1.3,1.7,2.7,2.2,3c0.1,0.1,0.2,0.1,0.3,0c0.5-0.4,2.2-1.7,2.2-3C101.2,393.4,100.7,392.9,100,392.9z"/>
		</g>
	</g>
	<g>
		<g>
			<radialGradient id="SVGID_17_" cx="67.0262" cy="403.9663" r="2.2498" gradientUnits="userSpaceOnUse">
				<stop  offset="0" style="stop-color:#FFFFFF"/>
				<stop  offset="1" style="stop-color:#F2F2F2"/>
			</radialGradient>
			<path fill="url(#SVGID_17_)" d="M68.1,401.8c-0.5,0-0.9,0.3-1.1,0.7c-0.2-0.4-0.6-0.7-1.1-0.7c-0.7,0-1.2,0.5-1.2,1.2
				c0,1.3,1.7,2.7,2.2,3c0.1,0.1,0.2,0.1,0.3,0c0.5-0.4,2.2-1.7,2.2-3C69.4,402.4,68.8,401.8,68.1,401.8z"/>
		</g>
	</g>
	<g>
		<g>
			<radialGradient id="SVGID_18_" cx="61.3208" cy="395.9957" r="1.813" gradientUnits="userSpaceOnUse">
				<stop  offset="0" style="stop-color:#FFFFFF"/>
				<stop  offset="1" style="stop-color:#F2F2F2"/>
			</radialGradient>
			<path fill="url(#SVGID_18_)" d="M62.2,394.3c-0.4,0-0.7,0.2-0.9,0.6c-0.2-0.3-0.5-0.6-0.9-0.6c-0.5,0-1,0.4-1,1
				c0,1.1,1.4,2.1,1.8,2.4c0.1,0,0.2,0,0.2,0c0.4-0.3,1.8-1.4,1.8-2.4C63.2,394.7,62.8,394.3,62.2,394.3z"/>
		</g>
	</g>
	<g>
		<g>
			<radialGradient id="SVGID_19_" cx="68.9153" cy="386.9164" r="1.813" gradientUnits="userSpaceOnUse">
				<stop  offset="0" style="stop-color:#FFFFFF"/>
				<stop  offset="1" style="stop-color:#F2F2F2"/>
			</radialGradient>
			<path fill="url(#SVGID_19_)" d="M69.8,385.2c-0.4,0-0.7,0.2-0.9,0.6c-0.2-0.3-0.5-0.6-0.9-0.6c-0.5,0-1,0.4-1,1
				c0,1.1,1.4,2.1,1.8,2.4c0.1,0,0.2,0,0.2,0c0.4-0.3,1.8-1.4,1.8-2.4C70.8,385.6,70.4,385.2,69.8,385.2z"/>
		</g>
	</g>
	<g>
		<g>
			<radialGradient id="SVGID_20_" cx="96.0943" cy="386.9164" r="1.3871" gradientUnits="userSpaceOnUse">
				<stop  offset="0" style="stop-color:#FFFFFF"/>
				<stop  offset="1" style="stop-color:#F2F2F2"/>
			</radialGradient>
			<path fill="url(#SVGID_20_)" d="M96.8,385.6c-0.3,0-0.6,0.2-0.7,0.5c-0.1-0.3-0.4-0.5-0.7-0.5c-0.4,0-0.8,0.3-0.8,0.8
				c0,0.8,1,1.6,1.4,1.9c0.1,0,0.1,0,0.2,0c0.3-0.2,1.4-1.1,1.4-1.9C97.5,385.9,97.2,385.6,96.8,385.6z"/>
		</g>
	</g>
	<g>
		<g>
			<radialGradient id="SVGID_21_" cx="86.0624" cy="389.569" r="1.3871" gradientUnits="userSpaceOnUse">
				<stop  offset="0" style="stop-color:#FFFFFF"/>
				<stop  offset="1" style="stop-color:#F2F2F2"/>
			</radialGradient>
			<path fill="url(#SVGID_21_)" d="M86.8,388.2c-0.3,0-0.6,0.2-0.7,0.5c-0.1-0.3-0.4-0.5-0.7-0.5c-0.4,0-0.8,0.3-0.8,0.8
				c0,0.8,1,1.6,1.4,1.9c0.1,0,0.1,0,0.2,0c0.3-0.2,1.4-1.1,1.4-1.9C87.5,388.6,87.2,388.2,86.8,388.2z"/>
		</g>
	</g>
</g>
</svg>
